<mxfile host="app.diagrams.net" modified="2024-01-21T19:28:20.604Z" agent="Mozilla/5.0 (Windows NT 10.0; Win64; x64) AppleWebKit/537.36 (KHTML, like Gecko) Chrome/120.0.0.0 Safari/537.36" etag="sFsPJQN0Wx92pAqDC6fc" version="22.1.21" type="device">
  <diagram name="Страница — 1" id="kY_8EiV6iNdJgDsGMXoX">
    <mxGraphModel dx="1313" dy="663" grid="1" gridSize="10" guides="1" tooltips="1" connect="1" arrows="1" fold="1" page="1" pageScale="1" pageWidth="827" pageHeight="1169" math="0" shadow="0">
      <root>
        <mxCell id="0" />
        <mxCell id="1" parent="0" />
        <mxCell id="zzoiUoc6OVgHHLdeYmrs-1" value="Node 1, Zone 1" style="swimlane;whiteSpace=wrap;html=1;fillColor=#fff2cc;strokeColor=#d6b656;" vertex="1" parent="1">
          <mxGeometry x="40" y="40" width="266" height="340" as="geometry" />
        </mxCell>
        <mxCell id="zzoiUoc6OVgHHLdeYmrs-2" value="postgres" style="rounded=0;whiteSpace=wrap;html=1;" vertex="1" parent="zzoiUoc6OVgHHLdeYmrs-1">
          <mxGeometry x="73" y="50" width="120" height="60" as="geometry" />
        </mxCell>
        <mxCell id="zzoiUoc6OVgHHLdeYmrs-3" value="patroni" style="rounded=0;whiteSpace=wrap;html=1;" vertex="1" parent="zzoiUoc6OVgHHLdeYmrs-1">
          <mxGeometry x="73" y="130" width="120" height="60" as="geometry" />
        </mxCell>
        <mxCell id="zzoiUoc6OVgHHLdeYmrs-4" value="etcd" style="rounded=0;whiteSpace=wrap;html=1;" vertex="1" parent="zzoiUoc6OVgHHLdeYmrs-1">
          <mxGeometry x="73" y="210" width="120" height="60" as="geometry" />
        </mxCell>
        <mxCell id="zzoiUoc6OVgHHLdeYmrs-5" value="&lt;b&gt;nofailover: false&lt;br&gt;nosynch: false&lt;/b&gt;" style="text;html=1;strokeColor=none;fillColor=none;align=center;verticalAlign=middle;whiteSpace=wrap;rounded=0;" vertex="1" parent="zzoiUoc6OVgHHLdeYmrs-1">
          <mxGeometry x="84.5" y="290" width="97" height="30" as="geometry" />
        </mxCell>
        <mxCell id="zzoiUoc6OVgHHLdeYmrs-6" value="Node 3" style="swimlane;whiteSpace=wrap;html=1;fillColor=#f8cecc;strokeColor=#b85450;" vertex="1" parent="1">
          <mxGeometry x="200" y="440" width="270" height="411" as="geometry" />
        </mxCell>
        <mxCell id="zzoiUoc6OVgHHLdeYmrs-7" value="postgres" style="rounded=0;whiteSpace=wrap;html=1;" vertex="1" parent="zzoiUoc6OVgHHLdeYmrs-6">
          <mxGeometry x="73" y="120" width="120" height="60" as="geometry" />
        </mxCell>
        <mxCell id="zzoiUoc6OVgHHLdeYmrs-8" value="patroni" style="rounded=0;whiteSpace=wrap;html=1;" vertex="1" parent="zzoiUoc6OVgHHLdeYmrs-6">
          <mxGeometry x="73" y="200" width="120" height="60" as="geometry" />
        </mxCell>
        <mxCell id="zzoiUoc6OVgHHLdeYmrs-9" value="etcd" style="rounded=0;whiteSpace=wrap;html=1;" vertex="1" parent="zzoiUoc6OVgHHLdeYmrs-6">
          <mxGeometry x="73" y="280" width="120" height="60" as="geometry" />
        </mxCell>
        <mxCell id="zzoiUoc6OVgHHLdeYmrs-10" value="&lt;b&gt;nofailover: true&lt;br&gt;nosynch: true&lt;br&gt;clonefrom: true&lt;br&gt;&lt;/b&gt;" style="text;html=1;strokeColor=none;fillColor=none;align=center;verticalAlign=middle;whiteSpace=wrap;rounded=0;" vertex="1" parent="zzoiUoc6OVgHHLdeYmrs-6">
          <mxGeometry x="65.25" y="360" width="135.5" height="30" as="geometry" />
        </mxCell>
        <mxCell id="zzoiUoc6OVgHHLdeYmrs-28" style="edgeStyle=orthogonalEdgeStyle;rounded=0;orthogonalLoop=1;jettySize=auto;html=1;exitX=0;exitY=0.5;exitDx=0;exitDy=0;entryX=0;entryY=0.5;entryDx=0;entryDy=0;fillColor=#e51400;strokeColor=#B20000;" edge="1" parent="zzoiUoc6OVgHHLdeYmrs-6" source="zzoiUoc6OVgHHLdeYmrs-13" target="zzoiUoc6OVgHHLdeYmrs-8">
          <mxGeometry relative="1" as="geometry" />
        </mxCell>
        <mxCell id="zzoiUoc6OVgHHLdeYmrs-13" value="proxy" style="rounded=0;whiteSpace=wrap;html=1;" vertex="1" parent="zzoiUoc6OVgHHLdeYmrs-6">
          <mxGeometry x="73" y="40" width="120" height="60" as="geometry" />
        </mxCell>
        <mxCell id="zzoiUoc6OVgHHLdeYmrs-19" value="Node 2, Zone 2" style="swimlane;whiteSpace=wrap;html=1;fillColor=#fff2cc;strokeColor=#d6b656;" vertex="1" parent="1">
          <mxGeometry x="350" y="40" width="266" height="340" as="geometry" />
        </mxCell>
        <mxCell id="zzoiUoc6OVgHHLdeYmrs-20" value="postgres" style="rounded=0;whiteSpace=wrap;html=1;" vertex="1" parent="zzoiUoc6OVgHHLdeYmrs-19">
          <mxGeometry x="73" y="50" width="120" height="60" as="geometry" />
        </mxCell>
        <mxCell id="zzoiUoc6OVgHHLdeYmrs-21" value="patroni" style="rounded=0;whiteSpace=wrap;html=1;" vertex="1" parent="zzoiUoc6OVgHHLdeYmrs-19">
          <mxGeometry x="73" y="130" width="120" height="60" as="geometry" />
        </mxCell>
        <mxCell id="zzoiUoc6OVgHHLdeYmrs-22" value="etcd" style="rounded=0;whiteSpace=wrap;html=1;" vertex="1" parent="zzoiUoc6OVgHHLdeYmrs-19">
          <mxGeometry x="73" y="210" width="120" height="60" as="geometry" />
        </mxCell>
        <mxCell id="zzoiUoc6OVgHHLdeYmrs-23" value="&lt;b&gt;nofailover: false&lt;br&gt;nosynch: false&lt;/b&gt;" style="text;html=1;strokeColor=none;fillColor=none;align=center;verticalAlign=middle;whiteSpace=wrap;rounded=0;" vertex="1" parent="zzoiUoc6OVgHHLdeYmrs-19">
          <mxGeometry x="84.5" y="290" width="97" height="30" as="geometry" />
        </mxCell>
        <mxCell id="zzoiUoc6OVgHHLdeYmrs-29" style="edgeStyle=orthogonalEdgeStyle;rounded=0;orthogonalLoop=1;jettySize=auto;html=1;exitX=0.5;exitY=0.5;exitDx=0;exitDy=0;exitPerimeter=0;entryX=1;entryY=0.5;entryDx=0;entryDy=0;fillColor=#e3c800;strokeColor=#B09500;" edge="1" parent="1" source="zzoiUoc6OVgHHLdeYmrs-15" target="zzoiUoc6OVgHHLdeYmrs-13">
          <mxGeometry relative="1" as="geometry" />
        </mxCell>
        <mxCell id="zzoiUoc6OVgHHLdeYmrs-15" value="&lt;b style=&quot;font-size: 14px;&quot;&gt;OLTP&lt;br&gt;&lt;/b&gt;" style="shape=umlActor;verticalLabelPosition=bottom;verticalAlign=top;html=1;outlineConnect=0;" vertex="1" parent="1">
          <mxGeometry x="520" y="480" width="30" height="60" as="geometry" />
        </mxCell>
        <mxCell id="zzoiUoc6OVgHHLdeYmrs-27" style="edgeStyle=orthogonalEdgeStyle;rounded=0;orthogonalLoop=1;jettySize=auto;html=1;exitX=0.5;exitY=0.5;exitDx=0;exitDy=0;exitPerimeter=0;entryX=1;entryY=0.5;entryDx=0;entryDy=0;fillColor=#e51400;strokeColor=#B20000;" edge="1" parent="1" source="zzoiUoc6OVgHHLdeYmrs-24" target="zzoiUoc6OVgHHLdeYmrs-13">
          <mxGeometry relative="1" as="geometry" />
        </mxCell>
        <mxCell id="zzoiUoc6OVgHHLdeYmrs-24" value="&lt;b style=&quot;font-size: 14px;&quot;&gt;OLAP&lt;br&gt;Backup&lt;br&gt;&lt;/b&gt;" style="shape=umlActor;verticalLabelPosition=bottom;verticalAlign=top;html=1;outlineConnect=0;" vertex="1" parent="1">
          <mxGeometry x="520" y="615.5" width="30" height="60" as="geometry" />
        </mxCell>
        <mxCell id="zzoiUoc6OVgHHLdeYmrs-25" style="edgeStyle=orthogonalEdgeStyle;rounded=0;orthogonalLoop=1;jettySize=auto;html=1;exitX=0.5;exitY=0;exitDx=0;exitDy=0;entryX=1;entryY=0.5;entryDx=0;entryDy=0;fillColor=#e3c800;strokeColor=#B09500;" edge="1" parent="1" source="zzoiUoc6OVgHHLdeYmrs-13" target="zzoiUoc6OVgHHLdeYmrs-3">
          <mxGeometry relative="1" as="geometry" />
        </mxCell>
        <mxCell id="zzoiUoc6OVgHHLdeYmrs-26" style="edgeStyle=orthogonalEdgeStyle;rounded=0;orthogonalLoop=1;jettySize=auto;html=1;exitX=0.5;exitY=0;exitDx=0;exitDy=0;entryX=0;entryY=0.5;entryDx=0;entryDy=0;fillColor=#e3c800;strokeColor=#B09500;" edge="1" parent="1" source="zzoiUoc6OVgHHLdeYmrs-13" target="zzoiUoc6OVgHHLdeYmrs-21">
          <mxGeometry relative="1" as="geometry" />
        </mxCell>
      </root>
    </mxGraphModel>
  </diagram>
</mxfile>
